<?xml version="1.0" encoding="UTF-8"?>
<!DOCTYPE svg PUBLIC "-//W3C//DTD SVG 1.1//EN" "http://www.w3.org/Graphics/SVG/1.1/DTD/svg11.dtd">
<!-- Creator: CorelDRAW -->
<svg xmlns="http://www.w3.org/2000/svg" xml:space="preserve" width="87.4259mm" height="17.842mm" version="1.1" style="shape-rendering:geometricPrecision; text-rendering:geometricPrecision; image-rendering:optimizeQuality; fill-rule:evenodd; clip-rule:evenodd"
viewBox="0 0 4517.13 921.86"
 xmlns:xlink="http://www.w3.org/1999/xlink"
 xmlns:xodm="http://www.corel.com/coreldraw/odm/2003">
 <defs>
  <style type="text/css">
   <![CDATA[
    .fil1 {fill:#003B46}
    .fil3 {fill:#00BFA5}
    .fil0 {fill:#003B46;fill-rule:nonzero}
    .fil2 {fill:#00BFA5;fill-rule:nonzero}
   ]]>
  </style>
 </defs>
 <g id="Camada_x0020_1">
  <metadata id="CorelCorpID_0Corel-Layer"/>
  <g id="_2163554490448">
   <path class="fil0" d="M1836.13 323.32c18.99,-31.86 43.57,-56.28 73.74,-73.22 30.17,-16.95 64.59,-25.43 103.23,-25.43l0 165.78c-6.1,-0.68 -15.26,-1.02 -27.46,-1.02 -42.71,0 -77.3,10 -103.74,30 -26.44,20 -41.7,47.29 -45.77,81.87l0 280.7 -181.03 0 0 -550.22 181.03 0 0 91.54z"/>
   <path class="fil1" d="M2559.12 668.38c-51.33,72.96 -127.89,117.15 -223.88,117.15 -156.69,0 -283.71,-127.02 -283.71,-283.71 0,-156.69 127.02,-283.71 283.71,-283.71 174.75,0 291.09,134.11 272.49,341.18l-406.83 0c22.85,57.33 68.86,97.86 134.35,97.86 52.55,0 90.37,-18.63 118.48,-58.56l105.4 69.78zm-90.31 -216.2c-7.36,-64.83 -72.97,-110.67 -133.57,-110.67 -60.6,0 -126.2,48.74 -133.57,110.67l267.13 0z"/>
   <path class="fil2" d="M3013.66 225.73l380.57 0 0 68.12 -305.39 0 0 169.14 273.29 0 0 68.13 -273.29 0 0 174.62 314.79 0 0 68.12 -389.96 0 0 -548.14zm865.28 548.14l-108.84 -172.27c-12.53,1.04 -22.71,1.57 -30.54,1.57l-139.39 0 0 170.71 -75.17 0 0 -548.14 214.56 0c69.43,0 123.07,16.05 160.92,48.15 37.85,32.11 56.77,77.66 56.77,136.65 0,44.37 -10.31,81.7 -30.93,111.98 -20.62,30.28 -50.25,52.2 -88.88,65.77l127.64 185.59 -86.14 0zm-139.39 -238.84c46.98,0 83,-10.31 108.06,-30.93 25.05,-20.62 37.58,-51.03 37.58,-91.23 0,-39.15 -12.53,-68.78 -37.58,-88.88 -25.06,-20.1 -61.08,-30.15 -108.06,-30.15l-139.39 0 0 241.18 139.39 0zm563.02 -309.31c68.39,0 121.24,16.18 158.57,48.55 37.33,32.37 55.99,77.79 55.99,136.25 0,61.08 -18.79,108.46 -56.38,142.12 -37.59,33.67 -90.31,50.51 -158.18,50.51l-136.25 0 0 170.71 -75.17 0 0 -548.14 211.43 0zm-3.14 309.31c46.99,0 83,-10.31 108.06,-30.93 25.06,-20.62 37.59,-51.03 37.59,-91.23 0,-39.15 -12.53,-68.78 -37.59,-88.88 -25.06,-20.1 -61.08,-30.15 -108.06,-30.15l-133.12 0.79 0 240.4 133.12 0z"/>
   <path class="fil3" d="M2336.71 104.09c19.01,-20.08 43.26,-45.13 65.49,-64.16 22.24,-19.02 42.46,-32.06 61.44,-37.25 18.99,-5.18 36.74,-2.52 48.49,5.19 11.75,7.73 17.48,20.52 15.44,36.91 -2.03,16.39 -11.84,36.37 -29.46,54.99 -17.61,18.61 -43.04,35.84 -72.93,47.05 -29.89,11.22 -64.24,16.41 -87.82,18.71 -23.59,2.3 -36.4,1.71 -43,0.3 -6.6,-1.4 -6.99,-3.6 -6.67,-5.63 0.33,-2.03 1.36,-3.9 8.78,-12.4 7.41,-8.5 21.21,-23.63 40.23,-43.73z"/>
   <path class="fil1" d="M209.24 390.48c-63.91,90.22 -174.46,231.49 -201.93,301.29 -27.47,69.8 28.14,68.13 75.21,68.04 47.06,-0.09 85.57,1.41 106.36,-0.92 20.79,-2.32 23.86,-8.45 53.82,-95.27 29.95,-86.81 86.8,-254.3 133.42,-327.89 46.61,-73.59 83,-53.29 87.71,2.11 4.7,55.4 -22.27,145.89 -19.69,187.74 2.59,41.85 34.76,35.07 74.6,3.44 39.84,-31.62 87.35,-88.06 129.73,-128.89 42.38,-40.83 79.63,-66.04 108.94,-72.57 29.31,-6.53 50.68,5.63 69.78,57.88 19.09,52.25 35.91,144.58 68.69,224.07 32.78,79.5 81.53,146.15 143.97,195.06 62.44,48.9 138.57,80.05 219.16,97.75 80.59,17.71 165.62,21.96 231.16,18.33 65.54,-3.62 111.57,-15.13 152.16,-33.12 40.59,-17.99 75.71,-42.46 94.38,-55.32 18.66,-12.86 20.87,-14.1 -2.19,-6.19 -23.06,7.91 -71.38,24.96 -130.05,33.1 -58.66,8.14 -127.67,7.36 -207.6,-14.22 -79.93,-21.59 -170.77,-63.99 -240.46,-131.16 -69.7,-67.17 -118.25,-159.12 -142.64,-240.14 -24.39,-81.03 -24.61,-151.14 -31.75,-206.38 -7.14,-55.24 -21.19,-95.61 -68.59,-114.13 -47.4,-18.52 -128.13,-15.2 -202.98,37.72 -74.85,52.92 -143.81,155.44 -175.65,197.01 -31.84,41.57 -26.55,22.18 -14.27,-11.25 12.29,-33.43 31.57,-80.92 36.15,-120.73 4.57,-39.81 -5.55,-71.94 -33.04,-88.96 -27.49,-17.01 -72.32,-18.9 -111.21,-7.21 -38.89,11.69 -71.83,36.96 -96.93,69.18 -25.1,32.22 -42.35,71.4 -106.26,161.62z"/>
   <path class="fil1" d="M1023.01 357.18c3.97,35.15 9.36,70.02 20.63,107.43 24.75,82.22 72.39,166.9 134.41,226.68 43.27,41.71 97.18,74.8 153.92,98.5 27.44,-9 52.15,-23.26 67.46,-42.62l0 54.03 153.54 0 0 -568.94 -153.54 0 0 46.24c-31.39,-30.34 -88.3,-48.67 -138.59,-48.67 -99.21,0 -186.61,50.58 -237.83,127.36zm99.25 158.32c0,-76.53 62.05,-138.58 138.59,-138.58 76.53,0 138.38,60.64 138.38,137.17 0,76.53 -61.85,140 -138.38,140 -76.54,0 -138.59,-62.05 -138.59,-138.59z"/>
  </g>
 </g>
</svg>
